<svg xmlns="http://www.w3.org/2000/svg" width="198.279" height="99.089" viewBox="0 0 198.279 99.089"><g id="it_corp" data-name="it corp" transform="translate(-30.334 -15.258)"><g id="Grupo_12020" data-name="Grupo 12020" transform="translate(54.973 49.329)"><path id="Trazado_12844" data-name="Trazado 12844" d="M85.6,57.635c1.7,4-2.933,9.792-10.34,12.927s-14.787,2.431-16.482-1.576S61.708,59.2,69.12,56.062,83.9,53.63,85.6,57.635Z" transform="translate(-58.425 -54.102)" fill="#d50006"></path></g><g id="Grupo_12021" data-name="Grupo 12021" transform="translate(87.909 39.657)"><path id="Trazado_12845" data-name="Trazado 12845" d="M117.826,46.217c1.45,3.43-2.193,8.248-8.137,10.766s-11.946,1.775-13.4-1.649,2.194-8.251,8.14-10.763S116.377,42.79,117.826,46.217Z" transform="translate(-95.975 -43.075)" fill="#d50006"></path></g><g id="Grupo_12022" data-name="Grupo 12022" transform="translate(103.942 23.975)"><path id="Trazado_12846" data-name="Trazado 12846" d="M134.562,28.5c.955,3.1-2.782,7-8.351,8.72s-10.849.6-11.808-2.5,2.779-7,8.351-8.718S133.6,25.4,134.562,28.5Z" transform="translate(-114.254 -25.196)" fill="#d50006"></path></g><g id="Grupo_12023" data-name="Grupo 12023" transform="translate(96.148 15.258)"><path id="Trazado_12847" data-name="Trazado 12847" d="M120.778,17.705c.717,2.309-2.13,5.24-6.36,6.544s-8.227.49-8.942-1.821,2.137-5.243,6.362-6.547S120.069,15.392,120.778,17.705Z" transform="translate(-105.367 -15.258)" fill="#d50006"></path></g><g id="Grupo_12024" data-name="Grupo 12024" transform="translate(80.695 16.461)"><path id="Trazado_12848" data-name="Trazado 12848" d="M100.08,18.028c.686,1.656-1.491,4.128-4.859,5.522s-6.656,1.175-7.344-.477,1.495-4.13,4.864-5.523S99.395,16.369,100.08,18.028Z" transform="translate(-87.75 -16.629)" fill="#d50006"></path></g><g id="Grupo_12025" data-name="Grupo 12025" transform="translate(62.741 24.489)"><path id="Trazado_12849" data-name="Trazado 12849" d="M77.032,26.973c.565,1.367-1.134,3.371-3.8,4.474s-5.279.881-5.844-.49,1.129-3.374,3.789-4.473S76.46,25.6,77.032,26.973Z" transform="translate(-67.281 -25.782)" fill="#d50006"></path></g><g id="Grupo_12026" data-name="Grupo 12026" transform="translate(50.185 33.89)"><path id="Trazado_12850" data-name="Trazado 12850" d="M60.544,37.454c.425,1.068-.9,2.61-2.971,3.444s-4.1.636-4.526-.437.895-2.617,2.968-3.445S60.111,36.38,60.544,37.454Z" transform="translate(-52.966 -36.5)" fill="#d50006"></path></g><g id="Grupo_12027" data-name="Grupo 12027" transform="translate(39.044 42.742)"><path id="Trazado_12851" data-name="Trazado 12851" d="M47.041,47.237c.429.876-.71,2.324-2.559,3.236s-3.691.935-4.126.057.712-2.326,2.556-3.237S46.606,46.356,47.041,47.237Z" transform="translate(-40.265 -46.592)" fill="#d50006"></path></g><g id="Grupo_12028" data-name="Grupo 12028" transform="translate(33.118 51.314)"><path id="Trazado_12852" data-name="Trazado 12852" d="M38.731,56.861c.412.725-.4,1.967-1.8,2.781s-2.892.888-3.31.165.386-1.968,1.8-2.783S38.31,56.14,38.731,56.861Z" transform="translate(-33.508 -56.365)" fill="#d50006"></path></g><g id="Grupo_12029" data-name="Grupo 12029" transform="translate(30.334 59.313)"><path id="Trazado_12853" data-name="Trazado 12853" d="M34.5,65.833c.306.535-.359,1.5-1.489,2.152s-2.3.741-2.606.206.354-1.5,1.489-2.15S34.191,65.3,34.5,65.833Z" transform="translate(-30.334 -65.485)" fill="#d50006"></path></g><g id="Grupo_12030" data-name="Grupo 12030" transform="translate(31.402 67.665)"><path id="Trazado_12854" data-name="Trazado 12854" d="M34.718,75.278c.239.412-.265,1.146-1.124,1.643s-1.745.558-1.984.147.263-1.148,1.123-1.642S34.481,74.864,34.718,75.278Z" transform="translate(-31.551 -75.006)" fill="#d50006"></path></g><g id="Grupo_12031" data-name="Grupo 12031" transform="translate(34.651 74.901)"><path id="Trazado_12855" data-name="Trazado 12855" d="M36.63,83.374c.1.182-.119.5-.489.713s-.758.244-.858.064.111-.495.483-.713S36.523,83.195,36.63,83.374Z" transform="translate(-35.256 -83.256)" fill="#d50006"></path></g><g id="Grupo_12032" data-name="Grupo 12032" transform="translate(75.332 67.396)"><path id="Trazado_12856" data-name="Trazado 12856" d="M81.636,74.7h9.1a22.728,22.728,0,0,1,3.676.235,6,6,0,0,1,2.181.755,5.62,5.62,0,0,1,2.054,2.27,7.171,7.171,0,0,1,.7,3.235,7.525,7.525,0,0,1-.571,3.07,5.153,5.153,0,0,1-1.736,2.124,6.218,6.218,0,0,1-2.243.982,18.567,18.567,0,0,1-3.885.294H85.826v6.97h-4.19Zm9.046,3.551H85.826v5.887H90.94a4.548,4.548,0,0,0,2.82-.725,3.218,3.218,0,0,0,.019-4.49A5.358,5.358,0,0,0,90.682,78.251Z" transform="translate(-81.636 -74.7)" fill="#17100d"></path><path id="Trazado_12857" data-name="Trazado 12857" d="M110.536,95.376a7.479,7.479,0,0,1-5.5-1.852,7.37,7.37,0,0,1-1.863-5.457,7.382,7.382,0,0,1,1.871-5.466,7.476,7.476,0,0,1,5.491-1.858h5.641V83.8h-5.112a4.711,4.711,0,0,0-2.826.6,2.809,2.809,0,0,0-.78,2.156h8.718V89.6h-8.718a2.894,2.894,0,0,0,.725,2.152,4.766,4.766,0,0,0,2.852.575h5.14v3.052Z" transform="translate(-84.282 -75.443)" fill="#17100d"></path><path id="Trazado_12858" data-name="Trazado 12858" d="M120.813,80.743h6.493a4.818,4.818,0,0,1,3.2.821,3.724,3.724,0,0,1,.916,2.871v2.44h-3.689V84.99a1.6,1.6,0,0,0-.3-1.146,2.184,2.184,0,0,0-1.39-.293h-1.357V95.376h-3.865Z" transform="translate(-86.45 -75.443)" fill="#17100d"></path><path id="Trazado_12859" data-name="Trazado 12859" d="M139.757,78.335H135.7V74.7h4.054Zm0,16.3H135.7V80h4.054Z" transform="translate(-88.279 -74.7)" fill="#17100d"></path><path id="Trazado_12860" data-name="Trazado 12860" d="M145.253,82.916h-2.779V80h2.779V78.5a4.142,4.142,0,0,1,.828-3.017,4.737,4.737,0,0,1,3.174-.779h3.661v2.818h-1.831a2.44,2.44,0,0,0-1.41.309,1.153,1.153,0,0,0-.42,1.006V80h3.661v2.916h-3.661V94.634h-4Z" transform="translate(-89.111 -74.7)" fill="#17100d"></path><path id="Trazado_12861" data-name="Trazado 12861" d="M162.948,95.376a7.481,7.481,0,0,1-5.5-1.852,7.375,7.375,0,0,1-1.867-5.457,7.383,7.383,0,0,1,1.874-5.466,7.485,7.485,0,0,1,5.493-1.858h5.643V83.8h-5.115a4.72,4.72,0,0,0-2.828.6,2.812,2.812,0,0,0-.78,2.156h8.723V89.6h-8.723a2.908,2.908,0,0,0,.725,2.152,4.777,4.777,0,0,0,2.857.575h5.141v3.052Z" transform="translate(-90.722 -75.443)" fill="#17100d"></path><path id="Trazado_12862" data-name="Trazado 12862" d="M173.224,80.743h6.5a4.8,4.8,0,0,1,3.194.821,3.731,3.731,0,0,1,.914,2.871v2.44H180.14V84.99a1.6,1.6,0,0,0-.3-1.146,2.188,2.188,0,0,0-1.39-.293h-1.357V95.376h-3.865Z" transform="translate(-92.89 -75.443)" fill="#17100d"></path><path id="Trazado_12863" data-name="Trazado 12863" d="M192.17,78.335h-4.058V74.7h4.058Zm0,16.3h-4.058V80h4.058Z" transform="translate(-94.719 -74.7)" fill="#17100d"></path><path id="Trazado_12864" data-name="Trazado 12864" d="M196.744,80.743h7.919a6.539,6.539,0,0,1,4.517,1.375,5.257,5.257,0,0,1,1.519,4.093v9.165H200.31a4.73,4.73,0,0,1-3.356-1.1,4.071,4.071,0,0,1-1.174-3.121,4.335,4.335,0,0,1,1.351-3.58,7.243,7.243,0,0,1,4.482-1.085H206.7v-.364a2.074,2.074,0,0,0-.767-1.832,5.076,5.076,0,0,0-2.731-.529h-6.457Zm5.14,11.689h4.843V89.408h-4.559a3.431,3.431,0,0,0-1.871.368,1.454,1.454,0,0,0-.515,1.274,1.259,1.259,0,0,0,.414,1.079A3.134,3.134,0,0,0,201.884,92.432Z" transform="translate(-95.661 -75.443)" fill="#17100d"></path><path id="Trazado_12865" data-name="Trazado 12865" d="M233.761,94.634h-4.386V74.7h4.386Z" transform="translate(-99.789 -74.7)" fill="#17100d"></path><path id="Trazado_12866" data-name="Trazado 12866" d="M243.163,78.2h-6.441V74.729h17.25V78.2H247.5V94.637h-4.341Z" transform="translate(-100.692 -74.704)" fill="#17100d"></path></g><g id="Grupo_12033" data-name="Grupo 12033" transform="translate(175.393 93.285)"><path id="Trazado_12867" data-name="Trazado 12867" d="M203.622,107.056a3.54,3.54,0,0,0-3.128,1.383,8.216,8.216,0,0,0-.955,4.537,6.207,6.207,0,0,0,.917,3.858,3.883,3.883,0,0,0,3.166,1.119h5.753v2.9h-5.92a11.26,11.26,0,0,1-3.079-.332,6.3,6.3,0,0,1-4.022-3.784,10.7,10.7,0,0,1-.64-3.908q0-4.415,1.915-6.513t5.928-2.1h5.819v2.84Z" transform="translate(-195.714 -104.216)" fill="#7c787c"></path><path id="Trazado_12868" data-name="Trazado 12868" d="M225.87,115.343a6.137,6.137,0,0,1-1.748,4.59,7.344,7.344,0,0,1-9.444-.009,6.858,6.858,0,0,1,0-9.184,7.312,7.312,0,0,1,9.433,0A6.155,6.155,0,0,1,225.87,115.343Zm-9.574,0a4.112,4.112,0,0,0,.815,2.715,3.139,3.139,0,0,0,4.549,0,4.868,4.868,0,0,0,.006-5.425,3.149,3.149,0,0,0-4.548.006A4.08,4.08,0,0,0,216.3,115.343Z" transform="translate(-197.827 -104.806)" fill="#7c787c"></path><path id="Trazado_12869" data-name="Trazado 12869" d="M229.932,109.262h5.42a4,4,0,0,1,2.666.687,3.1,3.1,0,0,1,.764,2.393v2.033H235.7V112.8a1.337,1.337,0,0,0-.255-.955,1.829,1.829,0,0,0-1.16-.244h-1.132v9.87h-3.224Z" transform="translate(-199.919 -104.836)" fill="#7c787c"></path><path id="Trazado_12870" data-name="Trazado 12870" d="M242.382,109.262H248.6a5.762,5.762,0,0,1,4.379,1.652,6.416,6.416,0,0,1,1.573,4.6,7.177,7.177,0,0,1-.328,2.224,5.864,5.864,0,0,1-.995,1.851,4.529,4.529,0,0,1-1.9,1.444,8.213,8.213,0,0,1-2.942.435h-2.77V125.9h-3.226Zm3.226,2.637v6.959h1.967a3.023,3.023,0,0,0,3.589-3.575,3.683,3.683,0,0,0-.748-2.62,3.541,3.541,0,0,0-2.59-.764Z" transform="translate(-201.448 -104.836)" fill="#7c787c"></path></g></g></svg>